<?xml version="1.0" encoding="UTF-8"?>
<svg version="1.1" xmlns="http://www.w3.org/2000/svg" width="772" height="656">
<path d="M0 0 C87.65193896 1.22236414 179.53055774 26.65304316 270.15625 99.3671875 C272.31126612 101.36235353 274.48844297 103.28708741 276.71484375 105.19921875 C281.71739805 109.55799687 286.38317085 114.23701337 291.0625 118.9375 C291.92166016 119.79279297 292.78082031 120.64808594 293.66601562 121.52929688 C298.08227647 125.95230525 302.35207589 130.43803092 306.42456055 135.17944336 C308.83222229 137.96170489 311.35823629 140.62933519 313.875 143.3125 C318.33504356 148.1064914 322.56309553 153.02510996 326.6640625 158.1328125 C329.33875016 161.41579033 332.10219348 164.61253139 334.875 167.8125 C340.28761007 174.0867894 345.44284267 180.52926805 350.51220703 187.08251953 C352.10311845 189.13289995 353.70500001 191.17436906 355.30859375 193.21484375 C371.27244546 213.56493665 386.37345557 234.50175611 400.75 256 C401.46655762 257.07016357 402.18311523 258.14032715 402.92138672 259.24291992 C403.58154785 260.23525635 404.24170898 261.22759277 404.921875 262.25 C405.51581055 263.14203125 406.10974609 264.0340625 406.72167969 264.953125 C408 267 408 267 408 268 C350.33575166 268.88959225 290.38089848 253.22193358 238 230 C237.24009766 229.66822754 236.48019531 229.33645508 235.69726562 228.99462891 C201.50655159 213.98766927 171.73062174 192.0128375 144.2421875 167.02734375 C142.28791576 165.26032801 140.30940263 163.53086471 138.3125 161.8125 C126.92226815 151.86168477 116.1088317 141.27441922 105.43554688 130.56591797 C103.47641344 128.60134799 101.51188356 126.64228552 99.546875 124.68359375 C88.50193327 113.6444832 88.50193327 113.6444832 83.44628906 107.69140625 C80.94173288 104.76237769 78.26881638 101.99028514 75.625 99.1875 C70.99727689 94.24251138 66.60172182 89.18772762 62.3671875 83.8984375 C59.53012436 80.42467372 56.58108982 77.05987394 53.625 73.6875 C48.01597633 67.26074697 42.68823023 60.66419985 37.48046875 53.91015625 C35.87365163 51.8369806 34.25053809 49.77727566 32.625 47.71875 C24.73946599 37.7075503 17.20502674 27.51144313 10 17 C9.50886719 16.28521484 9.01773437 15.57042969 8.51171875 14.83398438 C7.08367707 12.74844066 5.66457408 10.65719683 4.25 8.5625 C3.60369629 7.61274292 3.60369629 7.61274292 2.94433594 6.64379883 C0 2.23522292 0 2.23522292 0 0 Z " fill="#04672B" transform="translate(299,388)"/>
<path d="M0 0 C-1.32929439 3.98788316 -2.79868872 4.23389344 -6.5 6.1171875 C-7.07428238 6.41061035 -7.64856476 6.7040332 -8.24024963 7.00634766 C-10.15367264 7.97616937 -12.07552569 8.9273116 -14 9.875 C-14.66425995 10.20469788 -15.3285199 10.53439575 -16.01290894 10.87408447 C-55.99525037 30.63989941 -98.83965849 43.7593582 -143 50 C-143.81549316 50.11859375 -144.63098633 50.2371875 -145.47119141 50.359375 C-172.77730648 54.1545579 -201.8423248 53.25066529 -229 49 C-230.21236328 48.81195801 -231.42472656 48.62391602 -232.67382812 48.43017578 C-300.85094955 37.53812677 -371.22863917 17.1330388 -433 -14 C-431.66079739 -18.01760783 -430.08711757 -18.30181041 -426.3671875 -20.22265625 C-425.78775894 -20.52423645 -425.20833038 -20.82581665 -424.61134338 -21.13653564 C-422.70493326 -22.1234368 -420.79084045 -23.09404569 -418.875 -24.0625 C-418.21863556 -24.3973642 -417.56227112 -24.73222839 -416.88601685 -25.07723999 C-369.68879042 -49.13841631 -318.85201022 -64.46932105 -266 -69 C-265.12327637 -69.07589355 -264.24655273 -69.15178711 -263.34326172 -69.22998047 C-172.37739932 -76.53739034 -80.95167101 -37.51849529 0 0 Z " fill="#37884B" transform="translate(772,373)"/>
<path d="M0 0 C-12.70944244 29.01841229 -33.97481818 57.23167491 -56.44458008 79.43530273 C-58.21101029 81.21226886 -59.83789844 83.07216851 -61.4375 85 C-64.33504611 88.35370082 -67.41556576 91.2468428 -70.796875 94.10546875 C-73.26757034 96.23009152 -75.6241255 98.45745013 -78 100.6875 C-90.50753363 112.0439282 -104.50878123 121.37642958 -119 130 C-119.64888184 130.38720215 -120.29776367 130.7744043 -120.96630859 131.17333984 C-146.35157128 146.04423354 -175.19780954 155.73576219 -203 165 C-204.81516113 165.60835693 -204.81516113 165.60835693 -206.66699219 166.22900391 C-234.91332289 175.60125736 -263.86513439 182.74434055 -293.125 188.125 C-293.93999969 188.27551819 -294.75499939 188.42603638 -295.59469604 188.58111572 C-297.89768993 189.00241974 -300.20213193 189.41399305 -302.5078125 189.8203125 C-303.51759407 190.00231201 -303.51759407 190.00231201 -304.54777527 190.18798828 C-308.40819978 190.8485694 -312.08589325 191.11398845 -316 191 C-302.87996589 164.13184503 -286.87070735 139.42127575 -267 117 C-266.17757812 116.06671875 -265.35515625 115.1334375 -264.5078125 114.171875 C-252.91583483 101.27624027 -240.81389964 88.52487592 -227 78 C-225.7397896 77.00138131 -224.48076919 76.00125989 -223.22265625 75 C-212.94576465 66.89303768 -202.26713819 59.66027015 -191 53 C-190.32066406 52.5982959 -189.64132812 52.1965918 -188.94140625 51.78271484 C-139.94732393 23.32006355 -79.11750348 11.72334241 -23.875 2.4375 C-23.11983093 2.30921814 -22.36466187 2.18093628 -21.58660889 2.04876709 C-19.45225823 1.68937108 -17.31651418 1.34043024 -15.1796875 0.99609375 C-13.38120361 0.70496704 -13.38120361 0.70496704 -11.54638672 0.40795898 C-7.64222616 -0.04115655 -3.92646842 -0.06883332 0 0 Z " fill="#379E40" transform="translate(659,131)"/>
<path d="M0 0 C1.22717029 86.38020197 -24.62332276 152.96771358 -83.296875 216.05078125 C-85.26195841 218.16828111 -87.14514836 220.34110314 -89.01953125 222.5390625 C-93.82308012 228.04886218 -99.02133111 233.1706902 -104.19702148 238.32739258 C-105.933936 240.058947 -107.66543889 241.79578359 -109.39648438 243.53320312 C-115.09582 249.23636991 -120.83858723 254.79206901 -127 260 C-128.2593153 261.10114829 -129.51713082 262.20401414 -130.7734375 263.30859375 C-131.97362142 264.35195018 -133.17413925 265.39492264 -134.375 266.4375 C-135.29732422 267.24864258 -135.29732422 267.24864258 -136.23828125 268.07617188 C-140.77226217 272 -140.77226217 272 -143 272 C-149.82795433 207.3782894 -132.41907733 139.05042542 -92 88 C-87.81185565 82.87017794 -83.44772605 77.90508489 -79 73 C-77.87476929 71.74449341 -77.87476929 71.74449341 -76.72680664 70.46362305 C-69.37341705 62.33286137 -61.70035142 54.54663954 -53.93774414 46.80737305 C-51.80172643 44.67675366 -49.67115882 42.54078777 -47.54101562 40.40429688 C-46.15917493 39.0231165 -44.77702433 37.64224611 -43.39453125 36.26171875 C-42.77036819 35.63553146 -42.14620514 35.00934418 -41.50312805 34.36418152 C-37.70814605 30.58898662 -33.79569871 27.00048668 -29.7421875 23.5040741 C-27.51952473 21.58519367 -25.35464814 19.6061757 -23.1875 17.625 C-17.94436449 12.89161378 -12.50566111 8.42313481 -7 4 C-6.10925781 3.25363281 -5.21851563 2.50726562 -4.30078125 1.73828125 C-2 0 -2 0 0 0 Z " fill="#7EB13A" transform="translate(477,15)"/>
<path d="M0 0 C29.43377823 26.7579802 44.75765118 79.7973876 47 118 C49.02224092 162.79863837 43.01220854 219.59690731 24 261 C20.21059999 257.42522088 17.17381394 253.67486924 14.3125 249.3125 C13.88533691 248.66458496 13.45817383 248.01666992 13.01806641 247.34912109 C-3.88926967 221.29833725 -15.44583937 193.32722982 -22 163 C-22.27118652 161.75428223 -22.27118652 161.75428223 -22.54785156 160.48339844 C-33.37768727 108.31502486 -16.92625329 49.29976687 0 0 Z " fill="#A1BD2F" transform="translate(282,0)"/>
<path d="M0 0 C6.13480479 0.53886799 11.13679676 2.46812772 16.75 4.9375 C17.66668457 5.33718994 18.58336914 5.73687988 19.52783203 6.14868164 C48.94852925 19.17929311 77.19783903 37.21707587 97 63 C97.66902344 63.81855469 98.33804688 64.63710937 99.02734375 65.48046875 C122.61100603 95.21257185 139.21481546 132.52246122 151.8125 168.0625 C152.32852783 169.50834473 152.32852783 169.50834473 152.85498047 170.98339844 C153.15678223 171.86672852 153.45858398 172.75005859 153.76953125 173.66015625 C154.03354736 174.42980713 154.29756348 175.19945801 154.56958008 175.99243164 C155 178 155 178 154 181 C126.3771036 172.5257191 99.93937376 158.95468864 78 140 C77.20851563 139.31808594 76.41703125 138.63617188 75.6015625 137.93359375 C73.02663351 135.66326992 70.506263 133.34589201 68 131 C67.05125 130.11699219 66.1025 129.23398438 65.125 128.32421875 C31.07863011 95.93074791 13.48034227 46.12798989 0 2 C0 1.34 0 0.68 0 0 Z " fill="#C2D731" transform="translate(119,58)"/>
<path d="M0 0 C0.77956055 0.17740723 1.55912109 0.35481445 2.36230469 0.53759766 C17.51705387 4.15595515 31.21779742 10.87375103 45 18 C46.27351318 18.65838867 46.27351318 18.65838867 47.57275391 19.33007812 C69.60818268 30.86449466 93.88148783 45.74025369 111 64 C77.09423639 76.14845144 31.70409277 74.23236031 -0.97998047 58.96777344 C-1.64658691 58.6484082 -2.31319336 58.32904297 -3 58 C-3.77102051 57.63165039 -4.54204102 57.26330078 -5.33642578 56.88378906 C-30.92479328 44.45529558 -53.50788748 27.40996176 -75.34521484 9.34765625 C-76.85699812 8.11646067 -78.40542529 6.93061431 -79.95703125 5.75 C-80.63121094 5.1725 -81.30539063 4.595 -82 4 C-82 3.34 -82 2.68 -82 2 C-78.85550776 1.34752353 -75.70919244 0.70427425 -72.5625 0.0625 C-71.68400391 -0.11990234 -70.80550781 -0.30230469 -69.90039062 -0.49023438 C-47.68332473 -4.99923299 -22.12076285 -5.12786517 0 0 Z " fill="#D7DF24" transform="translate(123,176)"/>
<path d="M0 0 C0.75095947 0.00304138 1.50191895 0.00608276 2.27563477 0.00921631 C31.55076296 0.18250116 61.870802 5.04918551 89.3125 15.4375 C74.34884662 31.19884814 50.91754985 39.98239719 30.3125 45.4375 C29.095625 45.77652344 27.87875 46.11554688 26.625 46.46484375 C-1.16231602 52.96252433 -30.23058508 47.1836459 -57.375 40.5 C-58.03900818 40.33709473 -58.70301636 40.17418945 -59.387146 40.00634766 C-68.72481175 37.69173716 -77.69510489 34.82519503 -86.6875 31.4375 C-85.56552561 28.07157683 -85.1296111 27.79140463 -82.25 26.01953125 C-81.52876953 25.57375732 -80.80753906 25.1279834 -80.06445312 24.66870117 C-79.28005859 24.20052979 -78.49566406 23.7323584 -77.6875 23.25 C-76.47223633 22.51970581 -76.47223633 22.51970581 -75.23242188 21.7746582 C-64.48311912 15.42175346 -53.43427791 10.19084623 -41.625 6.125 C-40.96628906 5.89449951 -40.30757812 5.66399902 -39.62890625 5.42651367 C-26.63247694 1.18929181 -13.58399144 -0.11820429 0 0 Z " fill="#F5EE33" transform="translate(86.6875,247.5625)"/>
</svg>
